<?xml version="1.0" encoding="UTF-8"?>
<!DOCTYPE svg PUBLIC "-//W3C//DTD SVG 1.1//EN" "http://www.w3.org/Graphics/SVG/1.1/DTD/svg11.dtd">
<svg version="1.1" xmlns="http://www.w3.org/2000/svg" xmlns:xlink="http://www.w3.org/1999/xlink" x="0" y="0" width="1000" height="1000" viewBox="0, 0, 1000, 1000">
  <g id="Layer_1">
    <g>
      <path d="M410.874,165.6 L944.995,165.6 C963.436,165.6 978.391,152.3 978.391,135.9 C978.391,119.5 963.436,106.2 944.995,106.2 L410.874,106.2 C392.433,106.2 377.477,119.5 377.477,135.9 C377.477,152.2 392.433,165.6 410.874,165.6 z" fill="#FFFFFF"/>
      <path d="M410.874,165.6 L944.995,165.6 C963.436,165.6 978.391,152.3 978.391,135.9 C978.391,119.5 963.436,106.2 944.995,106.2 L410.874,106.2 C392.433,106.2 377.477,119.5 377.477,135.9 C377.477,152.2 392.433,165.6 410.874,165.6 z" fill-opacity="0" stroke="#FFFFFF" stroke-width="40"/>
    </g>
    <g>
      <path d="M944.995,834.4 L410.874,834.4 C392.433,834.4 377.477,847.7 377.477,864.1 C377.477,880.5 392.433,893.8 410.874,893.8 L944.995,893.8 C963.436,893.8 978.391,880.5 978.391,864.1 C978.391,847.7 963.436,834.4 944.995,834.4 z" fill="#FFFFFF"/>
      <path d="M944.995,834.4 L410.874,834.4 C392.433,834.4 377.477,847.7 377.477,864.1 C377.477,880.5 392.433,893.8 410.874,893.8 L944.995,893.8 C963.436,893.8 978.391,880.5 978.391,864.1 C978.391,847.7 963.436,834.4 944.995,834.4 z" fill-opacity="0" stroke="#FFFFFF" stroke-width="40"/>
    </g>
    <g>
      <path d="M944.995,470.3 L410.874,470.3 C392.433,470.3 377.477,483.6 377.477,500 C377.477,516.4 392.433,529.7 410.874,529.7 L944.995,529.7 C963.436,529.7 978.391,516.4 978.391,500 C978.391,483.6 963.436,470.3 944.995,470.3 z" fill="#FFFFFF"/>
      <path d="M944.995,470.3 L410.874,470.3 C392.433,470.3 377.477,483.6 377.477,500 C377.477,516.4 392.433,529.7 410.874,529.7 L944.995,529.7 C963.436,529.7 978.391,516.4 978.391,500 C978.391,483.6 963.436,470.3 944.995,470.3 z" fill-opacity="0" stroke="#FFFFFF" stroke-width="40"/>
    </g>
    <path d="M135.8,366.1 C61.9,366.1 1.9,426.2 1.9,500 C1.9,573.8 62,633.9 135.8,633.9 C209.6,633.9 269.7,573.8 269.7,500 C269.7,426.2 209.6,366.1 135.8,366.1 z M135.8,583 C90,583 52.8,545.8 52.8,500 C52.8,454.2 90,417 135.8,417 C181.6,417 218.8,454.2 218.8,500 C218.8,545.8 181.6,583 135.8,583 z" fill="#FFFFFF"/>
    <path d="M135.8,0 C62,0 1.9,60.1 1.9,133.9 C1.9,207.7 62,267.8 135.8,267.8 C209.6,267.8 269.7,207.7 269.7,133.9 C269.7,60.1 209.6,0 135.8,0 z M135.8,216.9 C90,216.9 52.8,179.7 52.8,133.9 C52.8,88.1 90,50.9 135.8,50.9 C181.6,50.9 218.8,88.1 218.8,133.9 C218.8,179.7 181.6,216.9 135.8,216.9 z" fill="#FFFFFF"/>
    <path d="M135.8,730.2 C62,730.2 1.9,790.3 1.9,864.1 C1.9,937.9 62,998 135.8,998 C209.6,998 269.7,937.9 269.7,864.1 C269.7,790.2 209.6,730.2 135.8,730.2 z M135.8,947.1 C90,947.1 52.8,909.9 52.8,864.1 C52.8,818.3 90,781.1 135.8,781.1 C181.6,781.1 218.8,818.4 218.8,864.1 C218.8,909.8 181.6,947.1 135.8,947.1 z" fill="#FFFFFF"/>
    <path d="M88,500 C88,526.4 109.4,547.8 135.8,547.8 C162.2,547.8 183.6,526.4 183.6,500 C183.6,473.6 162.2,452.2 135.8,452.2 C109.4,452.2 88,473.6 88,500 z" fill="#FFFFFF"/>
  </g>
</svg>
