<?xml version="1.0" encoding="UTF-8"?>
<!DOCTYPE svg PUBLIC "-//W3C//DTD SVG 1.1//EN" "http://www.w3.org/Graphics/SVG/1.1/DTD/svg11.dtd">
<svg version="1.1" xmlns="http://www.w3.org/2000/svg" xmlns:xlink="http://www.w3.org/1999/xlink" x="0" y="0" width="50" height="50" viewBox="0, 0, 50, 50">
  <g id="White">
    <path d="M16.917,39.655 C14.75,39.36 13.523,38.322 13,36.322 L12.826,35.678 L12.826,25.186 C12.826,13.36 12.788,14.148 13.409,12.89 C13.644,12.42 13.864,12.125 14.295,11.701 C15.341,10.663 16.295,10.314 18.091,10.314 C18.97,10.314 19.303,10.345 19.78,10.473 C21.356,10.905 22.53,11.989 23.053,13.496 C23.356,14.36 23.401,14.905 23.379,17.61 L23.356,20.148 L21.432,20.17 C20.076,20.186 19.477,20.163 19.409,20.102 C19.326,20.034 19.303,19.557 19.303,17.617 C19.303,15.451 19.288,15.193 19.159,14.913 C18.939,14.436 18.689,14.277 18.136,14.277 C17.576,14.277 17.265,14.443 17.061,14.852 C16.924,15.14 16.917,15.458 16.894,25.034 C16.871,35.852 16.856,35.428 17.303,35.633 C17.614,35.769 18.394,35.739 18.674,35.564 C19.151,35.277 19.151,35.261 19.151,32.155 L19.151,29.352 L18.553,29.352 C18.144,29.352 17.932,29.322 17.871,29.246 C17.811,29.178 17.788,28.633 17.803,27.451 L17.826,25.754 L20.515,25.754 L23.204,25.754 L23.227,30.337 C23.242,33.307 23.22,35.14 23.167,35.549 C22.901,37.602 21.689,39.019 19.765,39.511 C19.091,39.686 17.697,39.754 16.917,39.655 z" fill="#FFFFFF" id="G"/>
    <path d="M24.265,39.428 C24.212,39.337 27.924,10.943 28.023,10.663 L28.091,10.489 L30.47,10.489 C32.295,10.489 32.871,10.511 32.917,10.587 C32.992,10.701 36.803,39.36 36.757,39.443 C36.735,39.473 35.78,39.504 34.636,39.504 C33.038,39.504 32.545,39.481 32.523,39.413 C32.492,39.314 31.651,32.761 31.651,32.61 C31.651,32.564 31.235,32.534 30.523,32.534 L29.386,32.534 L29.333,32.973 C29.303,33.208 29.106,34.769 28.894,36.436 L28.507,39.466 L26.409,39.489 C24.97,39.496 24.295,39.481 24.265,39.428 z M31.235,28.761 C31.818,28.481 32.129,27.951 32.129,27.269 C32.129,26.284 31.477,25.64 30.477,25.64 C29.424,25.64 28.682,26.587 28.917,27.64 C29.151,28.678 30.288,29.231 31.235,28.761 z" fill="#FFFFFF" id="A"/>
  </g>
  <g id="Red">
    <path d="M22.447,49.92 C22.409,49.905 21.947,49.852 21.439,49.807 C20.295,49.708 20.182,49.663 20.25,49.307 C20.311,48.966 20.114,48.292 19.871,47.996 C19.424,47.473 18.5,47.284 17.894,47.595 C17.53,47.777 17.326,48.004 17.114,48.428 C16.924,48.799 17.007,48.807 15.894,48.367 C14.932,47.981 14.174,47.633 14.121,47.542 C14.098,47.504 14.129,47.352 14.189,47.201 C14.25,47.057 14.303,46.769 14.303,46.572 C14.295,45.034 12.439,44.39 11.379,45.549 L11.129,45.822 L10.727,45.542 C10.341,45.277 9.674,44.754 9.007,44.193 L8.682,43.928 L8.879,43.64 C9.091,43.33 9.227,42.92 9.227,42.602 C9.227,42.254 8.992,41.723 8.72,41.443 C8.462,41.193 7.894,40.943 7.568,40.943 C7.318,40.943 6.886,41.102 6.606,41.292 L6.311,41.489 L6.023,41.163 C5.727,40.83 4.826,39.64 4.568,39.254 L4.439,39.049 L4.773,38.686 C5.189,38.246 5.318,37.89 5.273,37.299 C5.227,36.701 4.947,36.284 4.386,36.004 C3.917,35.761 3.523,35.739 3.114,35.905 C2.97,35.966 2.811,36.019 2.773,36.019 C2.614,36.019 1.523,33.39 1.598,33.186 C1.621,33.125 1.765,33.019 1.917,32.943 C2.523,32.663 2.939,31.852 2.826,31.193 C2.757,30.761 2.485,30.33 2.121,30.08 C1.856,29.89 1.704,29.845 1.212,29.807 L0.629,29.769 L0.5,29.011 C0.432,28.595 0.348,27.936 0.318,27.557 C0.265,26.784 0.318,26.625 0.644,26.625 C0.879,26.625 1.341,26.39 1.545,26.155 C1.848,25.83 1.977,25.473 1.977,24.996 C1.977,24.223 1.545,23.617 0.871,23.436 C0.311,23.292 0.326,23.307 0.341,22.527 C0.356,22.133 0.424,21.458 0.492,21.019 L0.629,20.223 L1.212,20.186 C1.704,20.148 1.856,20.102 2.121,19.913 C2.485,19.663 2.757,19.231 2.826,18.799 C2.939,18.14 2.523,17.33 1.917,17.049 C1.765,16.973 1.621,16.867 1.598,16.807 C1.523,16.61 2.621,13.973 2.78,13.973 C2.818,13.973 2.97,14.027 3.114,14.087 C4.129,14.511 5.288,13.686 5.288,12.549 C5.288,12.034 5.129,11.663 4.742,11.269 L4.432,10.951 L4.568,10.739 C4.826,10.352 5.72,9.17 6.023,8.83 L6.311,8.504 L6.606,8.701 C6.886,8.89 7.318,9.049 7.568,9.049 C7.894,9.049 8.462,8.799 8.72,8.549 C8.992,8.269 9.227,7.739 9.227,7.39 C9.227,7.08 9.091,6.663 8.886,6.367 C8.78,6.216 8.697,6.08 8.697,6.064 C8.697,6.027 10.364,4.708 10.765,4.428 L11.129,4.17 L11.379,4.443 C11.962,5.08 12.803,5.223 13.515,4.807 C14.189,4.42 14.492,3.511 14.189,2.792 C14.129,2.64 14.091,2.489 14.114,2.458 C14.167,2.375 15.023,1.973 15.894,1.625 C17.007,1.186 16.924,1.193 17.114,1.564 C17.523,2.383 18.25,2.731 19.053,2.496 C19.818,2.269 20.227,1.708 20.242,0.883 C20.25,0.542 20.28,0.383 20.364,0.345 C20.538,0.254 21.515,0.125 22.454,0.064 L23.303,0.019 L23.394,0.405 C23.598,1.269 24.235,1.739 25.098,1.686 C25.492,1.663 25.651,1.61 25.909,1.428 C26.28,1.17 26.538,0.761 26.606,0.322 L26.659,0.019 L27.507,0.064 C28.462,0.125 29.432,0.254 29.614,0.345 C29.712,0.398 29.742,0.511 29.735,0.852 C29.727,1.67 30.159,2.269 30.917,2.496 C31.727,2.739 32.561,2.314 32.901,1.496 C33.03,1.193 32.97,1.186 34.076,1.625 C34.947,1.973 35.803,2.375 35.856,2.458 C35.879,2.489 35.841,2.64 35.78,2.792 C35.72,2.936 35.667,3.223 35.667,3.42 C35.674,4.951 37.53,5.602 38.591,4.443 L38.833,4.17 L39.129,4.367 C39.379,4.534 40.439,5.36 41.114,5.913 L41.288,6.064 L41.091,6.352 C40.879,6.663 40.742,7.072 40.742,7.39 C40.742,7.739 40.977,8.269 41.25,8.549 C41.507,8.799 42.076,9.049 42.401,9.049 C42.651,9.049 43.083,8.89 43.364,8.701 L43.659,8.504 L43.947,8.83 C44.341,9.269 45.364,10.633 45.462,10.852 C45.53,11.004 45.507,11.049 45.273,11.246 C44.348,12.011 44.538,13.519 45.621,14.019 C46.076,14.231 46.454,14.246 46.886,14.072 C47.189,13.958 47.212,13.958 47.303,14.08 C47.432,14.261 47.947,15.451 48.235,16.231 L48.47,16.86 L48.212,16.966 C47.25,17.367 46.848,18.504 47.356,19.375 C47.674,19.913 48.053,20.133 48.765,20.186 L49.341,20.223 L49.47,20.981 C49.538,21.398 49.621,22.072 49.659,22.489 C49.735,23.33 49.78,23.254 49.076,23.443 C47.954,23.746 47.598,25.413 48.485,26.216 C48.727,26.443 49.106,26.625 49.326,26.625 C49.712,26.625 49.742,26.723 49.636,27.761 C49.576,28.284 49.492,28.951 49.439,29.239 L49.341,29.769 L48.765,29.807 C48.303,29.845 48.121,29.898 47.879,30.057 C46.757,30.792 46.954,32.496 48.212,33.027 L48.47,33.133 L48.235,33.761 C47.917,34.64 47.401,35.807 47.288,35.936 C47.212,36.019 47.144,36.019 46.848,35.905 C46.439,35.746 45.97,35.784 45.523,36.019 C44.53,36.519 44.394,38.019 45.273,38.746 C45.507,38.943 45.53,38.989 45.462,39.148 C45.364,39.36 44.356,40.701 43.947,41.163 L43.659,41.489 L43.364,41.292 C42.636,40.799 41.871,40.867 41.28,41.466 C40.644,42.095 40.576,42.883 41.091,43.64 L41.288,43.928 L40.992,44.178 C40.515,44.595 38.924,45.792 38.848,45.792 C38.811,45.792 38.704,45.693 38.614,45.572 C38.204,45.011 37.212,44.784 36.591,45.102 C35.811,45.504 35.454,46.428 35.78,47.201 C35.841,47.352 35.871,47.504 35.848,47.542 C35.795,47.625 35.053,47.973 34.076,48.367 C32.985,48.807 33.03,48.799 32.901,48.496 C32.629,47.845 32.053,47.451 31.386,47.443 C30.879,47.436 30.356,47.678 30.083,48.042 C29.841,48.36 29.674,48.958 29.735,49.307 C29.765,49.511 29.742,49.58 29.621,49.648 C29.485,49.723 28.674,49.814 27.25,49.936 L26.667,49.981 L26.614,49.663 C26.485,48.89 25.78,48.292 25,48.292 C24.189,48.292 23.583,48.777 23.394,49.58 L23.303,49.958 L22.917,49.951 C22.697,49.951 22.492,49.936 22.447,49.92 z M19.765,39.36 C21.629,38.883 22.735,37.602 23.007,35.61 C23.061,35.246 23.091,33.292 23.091,30.443 L23.091,25.867 L20.515,25.867 L17.939,25.867 L17.939,27.534 L17.939,29.193 L18.606,29.216 L19.265,29.239 L19.288,32.125 L19.303,35.011 L19.129,35.269 C18.841,35.701 18.515,35.867 17.962,35.867 C17.341,35.867 17.061,35.723 16.871,35.314 C16.735,35.004 16.727,34.663 16.727,25.223 C16.727,18.39 16.75,15.36 16.811,15.148 C16.917,14.769 17.197,14.39 17.485,14.239 C17.606,14.178 17.901,14.125 18.159,14.125 C18.568,14.125 18.644,14.155 18.894,14.367 C19.439,14.845 19.454,14.928 19.454,17.633 L19.454,20.034 L21.356,20.034 L23.257,20.034 L23.22,17.216 C23.197,14.822 23.174,14.322 23.061,13.936 C22.553,12.193 21.447,11.08 19.78,10.625 C18.932,10.398 17.242,10.398 16.401,10.625 C15.106,10.981 14.129,11.761 13.561,12.89 C12.939,14.14 12.977,13.36 12.977,25.186 C12.977,36.625 12.954,35.92 13.394,37.102 C14.023,38.777 15.75,39.633 18.318,39.542 C18.841,39.519 19.417,39.451 19.765,39.36 z M28.394,39.269 C28.394,39.102 29.235,32.572 29.265,32.481 C29.288,32.405 29.614,32.383 30.515,32.383 C31.424,32.383 31.742,32.405 31.765,32.481 C31.795,32.572 32.636,39.125 32.636,39.277 C32.636,39.322 33.341,39.352 34.651,39.352 C36.53,39.352 36.659,39.345 36.629,39.223 C36.606,39.148 35.742,32.686 34.704,24.867 L32.826,10.64 L30.5,10.64 L28.167,10.64 L28.129,10.814 C28.114,10.905 27.273,17.216 26.273,24.845 C25.273,32.473 24.432,38.852 24.409,39.034 L24.364,39.352 L26.379,39.352 C27.795,39.352 28.394,39.33 28.394,39.269 z" fill="#E41A23" id="Logo"/>
    <path d="M30.174,29.049 C29.788,28.958 29.485,28.769 29.167,28.405 C28.568,27.723 28.568,26.814 29.167,26.133 C29.576,25.67 29.947,25.489 30.477,25.489 C31.197,25.489 31.78,25.852 32.129,26.511 C32.326,26.905 32.341,27.61 32.151,27.989 C31.757,28.761 30.894,29.223 30.174,29.049 z" fill="#E41A23" id="Dot_in_'A'"/>
  </g>
</svg>
