<?xml version="1.0" encoding="UTF-8"?>
<!DOCTYPE svg PUBLIC "-//W3C//DTD SVG 1.1//EN" "http://www.w3.org/Graphics/SVG/1.1/DTD/svg11.dtd">
<svg version="1.1" xmlns="http://www.w3.org/2000/svg" xmlns:xlink="http://www.w3.org/1999/xlink" x="0" y="0" width="50" height="50" viewBox="0, 0, 50, 50">
  <g id="GA">
    <path d="M29.703,10.207 L30.719,10.224 L33.179,10.309 L35.101,24.59 C36.147,32.452 36.995,39.041 37.023,39.239 C37.023,39.465 36.43,39.578 34.931,39.578 L32.839,39.578 L32.528,36.835 C31.991,32.254 32.076,32.452 30.719,32.565 L29.532,32.65 L29.136,36.128 L28.74,39.578 L26.648,39.578 C24.811,39.578 24.585,39.522 24.585,39.041 C24.585,38.758 25.405,32.254 26.422,24.618 C27.44,16.955 28.26,10.592 28.26,10.422 C28.792,10.084 28.365,10.317 29.703,10.207 z" fill="#FFFFFF"/>
    <path d="M18.658,10.214 C20.476,10.559 19.742,10.31 20.91,10.79 C22.889,11.808 23.454,13.193 23.454,17.011 L23.454,20.065 L19.496,20.065 L19.496,17.379 C19.497,14.89 19.44,14.664 18.818,14.268 C18.027,13.731 17.292,13.957 17.094,14.805 C17.009,15.116 16.981,19.981 17.009,25.58 L17.094,35.761 L19.072,35.761 L19.157,32.593 C19.214,29.879 19.157,29.398 18.79,29.398 C18.451,29.398 18.366,29.03 18.366,27.56 L18.366,25.721 L23.171,25.721 L23.171,31.208 C23.172,36.411 23.143,36.722 22.549,37.599 C22.182,38.108 21.56,38.787 21.136,39.098 C20.627,39.465 19.779,39.692 18.45,39.776 C15.963,39.946 14.267,39.154 13.419,37.458 C12.882,36.411 12.853,35.648 12.768,26.23 C12.655,13.674 12.825,12.6 15.058,10.903 C16.141,10.166 17.416,10.238 18.658,10.214 z" fill="#FFFFFF"/>
    <path d="M30.743,29.172 C29.557,29.172 28.595,28.209 28.595,27.022 C28.595,25.835 29.557,24.873 30.743,24.873 C31.93,24.873 32.892,25.835 32.892,27.022 C32.892,28.209 31.93,29.172 30.743,29.172 z" fill="#EE203B" id="Dot"/>
    <path d="M19.638,49.646 C18.309,49.363 18.224,49.278 18.309,48.515 C18.648,45.743 15.228,44.103 13.249,46.083 L12.401,46.931 L10.874,45.913 C9.404,44.923 9.348,44.839 9.744,44.301 C10.366,43.425 10.281,41.756 9.574,40.879 C8.669,39.72 7.199,39.494 5.334,40.257 C4.994,40.399 4.627,40.088 3.949,39.041 L3.044,37.599 L3.92,36.609 C5.786,34.46 4.429,31.66 1.546,31.66 C0.641,31.66 0.585,31.604 0.302,30.246 C-0.15,28.21 -0.122,28.125 0.98,27.729 C2.083,27.333 2.818,26.23 2.818,24.958 C2.818,23.742 1.828,22.328 0.839,22.13 C-0.122,21.96 -0.179,21.677 0.274,19.585 L0.585,18.227 L1.687,18.312 C2.676,18.425 2.959,18.284 3.807,17.435 C5.221,16.021 5.136,14.183 3.581,12.967 C2.987,12.486 3.016,12.486 3.949,11.016 C4.712,9.8 4.994,9.602 5.475,9.743 C8.98,10.903 10.874,9.008 9.744,5.473 C9.602,4.992 9.8,4.71 11.016,3.946 C12.486,3.013 12.486,2.984 12.966,3.578 C14.182,5.134 16.019,5.219 17.433,3.805 C18.281,2.956 18.422,2.673 18.309,1.684 L18.224,0.581 L19.581,0.27 C21.617,-0.155 22.041,-0.098 22.041,0.581 C22.041,0.92 22.437,1.542 22.917,1.995 C24.472,3.437 27.044,2.9 27.723,0.977 C28.119,-0.126 28.203,-0.155 30.239,0.298 L31.652,0.609 L31.652,1.768 C31.68,4.512 34.507,5.728 36.599,3.918 L37.589,3.041 L39.002,3.946 C39.794,4.455 40.416,4.879 40.416,4.936 C40.416,4.964 40.218,5.473 39.992,6.067 C39.426,7.34 39.794,8.725 40.896,9.602 C41.744,10.281 43.412,10.337 44.289,9.743 C44.826,9.347 44.91,9.404 45.9,10.875 L46.918,12.402 L46.069,13.25 C44.062,15.258 45.787,18.736 48.585,18.312 C49.349,18.199 49.433,18.284 49.575,19.189 C49.66,19.754 49.801,20.631 49.914,21.14 C50.084,21.932 50.027,22.045 49.518,22.045 C48.698,22.045 47.511,23.148 47.228,24.166 C47.087,24.703 47.115,25.41 47.313,26.004 C47.596,26.909 47.963,27.192 49.971,28.182 C50.027,28.182 49.914,28.974 49.716,29.935 L49.377,31.66 L48.133,31.66 C45.221,31.66 44.119,35.223 46.437,37.062 C47.002,37.514 47.002,37.542 46.069,38.9 C45.561,39.663 45.08,40.342 45.023,40.399 C44.967,40.455 44.628,40.342 44.232,40.144 C42.649,39.296 40.67,40.031 39.963,41.728 C39.624,42.548 39.624,42.831 39.992,43.877 C40.218,44.527 40.359,45.093 40.331,45.093 C40.303,45.121 39.652,45.574 38.889,46.083 C37.532,47.016 37.504,47.016 37.052,46.45 C35.893,44.98 33.857,44.81 32.529,46.055 C31.794,46.733 31.652,47.101 31.652,48.147 L31.652,49.392 L29.928,49.731 C28.967,49.929 28.175,50.042 28.147,49.985 C28.09,49.929 27.921,49.476 27.695,48.967 C27.214,47.723 26.394,47.214 24.924,47.214 C23.935,47.214 23.539,47.384 22.861,48.034 C22.408,48.487 22.041,49.137 22.041,49.448 C22.041,50.127 21.758,50.155 19.638,49.646 z M21.136,39.098 C21.56,38.787 22.182,38.108 22.55,37.599 C23.143,36.722 23.172,36.411 23.172,31.208 L23.172,25.721 L20.769,25.721 L18.366,25.721 L18.366,27.56 C18.366,29.03 18.451,29.398 18.79,29.398 C19.157,29.398 19.214,29.879 19.157,32.593 L19.072,35.761 L18.083,35.761 L17.094,35.761 L17.009,25.58 C16.981,19.981 17.009,15.116 17.094,14.805 C17.292,13.957 18.027,13.731 18.818,14.268 C19.44,14.664 19.497,14.89 19.497,17.379 L19.497,20.065 L21.475,20.065 L23.454,20.065 L23.454,17.011 C23.454,13.193 22.889,11.808 20.91,10.79 C19.27,9.941 16.274,9.998 15.058,10.903 C12.825,12.6 12.655,13.674 12.768,26.23 C12.853,35.648 12.882,36.411 13.419,37.458 C14.267,39.154 15.963,39.946 18.451,39.776 C19.779,39.692 20.627,39.465 21.136,39.098 z M29.136,36.128 L29.532,32.65 L30.719,32.565 C32.076,32.452 31.991,32.254 32.529,36.835 L32.84,39.578 L34.931,39.578 C36.43,39.578 37.023,39.465 37.023,39.239 C36.995,39.041 36.147,32.452 35.101,24.59 L33.179,10.309 L30.719,10.224 C29.221,10.168 28.26,10.252 28.26,10.422 C28.26,10.592 27.44,16.955 26.422,24.618 C25.405,32.254 24.585,38.758 24.585,39.041 C24.585,39.522 24.811,39.578 26.649,39.578 L28.741,39.578 L29.136,36.128 z" fill="#EE203B" id="Gear"/>
  </g>
</svg>
